# xmcd
#
# Track frame offsets:
#	150
#	23625
#	41036
#	53906
#	72248
#	87073
#	103771
#	117645
#	137710
#	157808
#	177024
#	187883
#	203336
#
# Disc length: 2769 seconds
#
# Revision: 0
# Processed by: cddbd v1.5.2PL0 Copyright (c) Steve Scherf et al.
# Submitted via: audiograbber 1.83.01
#
DISCID=a30acf0d
DTITLE=Julie Miller - Blue Pony
DYEAR=1997
DGENRE=Country
TTITLE0=A Kiss On The Lips
TTITLE1=Take Me Back
TTITLE2=By Way Of Sorrow [with Karen Peris]
TTITLE3=Dancing Girl [with Buddy Miller]
TTITLE4=Give Me An Ocean
TTITLE5=All The Pieces Of Mary
TTITLE6=The Devil Is An Angel
TTITLE7=Letters To Emily
TTITLE8=I Call On You [with Steve Earle and Buddy Miller]
TTITLE9=Face Of Appalachia [with Buddy Miller]
TTITLE10=Forever My Beloved [with Emmylou Harris]
TTITLE11=Blue Pony
TTITLE12=Last Song
EXTD=
EXTT0=
EXTT1=
EXTT2=
EXTT3=
EXTT4=
EXTT5=
EXTT6=
EXTT7=
EXTT8=
EXTT9=
EXTT10=
EXTT11=
EXTT12=
PLAYORDER=
